# xmcd
#
# Track frame offsets: 
#        150
#        14254
#        26862
#        40976
#        53896
#        68103
#        83572
#        95625
#        109890
#        123668
#        140937
#        152362
#        165816
#        179175
#        193747
#        207707
#        220445
#        235052
#
# Disc length: 3305 seconds
#
# Revision: 1
# Processed by: cddbd v1.5.2PL0 Copyright (c) Steve Scherf et al.
# Submitted via: ExactAudioCopy v0.95b2
#
DISCID=0c0ce712
DTITLE=Rosa Henderson - The Essential Rosa Henderson Disc 1
DYEAR=2001
DGENRE=blues
TTITLE0=Midnight Blues (A Wee Hour Chant)
TTITLE1=Black Snake Moan
TTITLE2=Dyin' Crapshooter's Blues
TTITLE3=Where (Can That Somebody Be)?
TTITLE4=Down South Blues
TTITLE5=Papa Will Be Gone
TTITLE6=Papa, If You Can't Do Better
TTITLE7=If You Don't Give Me What I Want (I'll Get It Somewhere Else)
TTITLE8=Barrel House Blues
TTITLE9=Don't Advertise Your Man
TTITLE10=Poplar Bluff Blues
TTITLE11=Daddy, Come Back
TTITLE12=Let's Talk About My Sweetie
TTITLE13=Memphis Bound
TTITLE14=He May Be Your Dog But He's Wearing My Collar
TTITLE15=I've Got Somebody Now
TTITLE16=He's My Man
TTITLE17=Every Woman's Blues
EXTD=
EXTT0=
EXTT1=
EXTT2=
EXTT3=
EXTT4=
EXTT5=
EXTT6=
EXTT7=
EXTT8=
EXTT9=
EXTT10=
EXTT11=
EXTT12=
EXTT13=
EXTT14=
EXTT15=
EXTT16=
EXTT17=
PLAYORDER=
